<?xml version="1.0" encoding="UTF-8" standalone="no"?>
<!-- Created with Inkscape (http://www.inkscape.org/) -->

<svg
   width="1920"
   height="1920"
   viewBox="0 0 508.00001 507.99998"
   version="1.1"
   id="svg5"
   inkscape:version="1.1 (c68e22c387, 2021-05-23)"
   sodipodi:docname="favicon.svg"
   xmlns:inkscape="http://www.inkscape.org/namespaces/inkscape"
   xmlns:sodipodi="http://sodipodi.sourceforge.net/DTD/sodipodi-0.dtd"
   xmlns="http://www.w3.org/2000/svg"
   xmlns:svg="http://www.w3.org/2000/svg">
  <sodipodi:namedview
     id="namedview7"
     pagecolor="#505050"
     bordercolor="#eeeeee"
     borderopacity="1"
     inkscape:pageshadow="0"
     inkscape:pageopacity="0"
     inkscape:pagecheckerboard="0"
     inkscape:document-units="px"
     showgrid="false"
     units="px"
     inkscape:zoom="0.16"
     inkscape:cx="-453.125"
     inkscape:cy="534.375"
     inkscape:window-width="1920"
     inkscape:window-height="1057"
     inkscape:window-x="-8"
     inkscape:window-y="-8"
     inkscape:window-maximized="1"
     inkscape:current-layer="layer1"
     inkscape:lockguides="true"
     inkscape:snap-page="true"
     inkscape:snap-grids="false" />
  <defs
     id="defs2" />
  <g
     inkscape:label="Layer 1"
     inkscape:groupmode="layer"
     id="layer1">
    <rect
       style="fill:#1a1a1a;fill-opacity:1;stroke:none;stroke-width:1.36657"
       id="rect925"
       width="508"
       height="508"
       x="0"
       y="0"
       rx="90.011246" />
    <path
       style="display:inline;fill:#ff8a00;fill-opacity:1;fill-rule:nonzero;stroke:#ff8a00;stroke-width:1.41445;stroke-miterlimit:4;stroke-dasharray:none;stroke-opacity:1"
       d="m 63.542658,364.07545 c -5.745062,-3.53637 -7.910836,-6.41457 -10.369938,-13.78202 -2.798011,-8.38227 -2.612737,-15.31374 0.652849,-24.43296 1.486346,-4.1501 3.243861,-8.3806 3.905852,-9.40118 0.662093,-1.02057 1.276494,-2.61948 1.365557,-3.55312 0.173083,-1.81532 8.110064,-17.3786 12.478874,-24.46893 6.079998,-9.86741 15.114945,-23.42147 16.983166,-25.47722 1.103934,-1.21511 2.070586,-2.87238 2.14778,-3.68289 0.07774,-0.8105 1.384906,-2.72605 2.906209,-4.25666 1.520999,-1.53061 3.815948,-4.47345 5.099999,-6.53961 1.283845,-2.06624 4.534964,-6.27849 7.224604,-9.3607 2.6893,-3.08225 4.9309,-6.03172 4.98067,-6.55454 0.0495,-0.52274 1.47816,-2.49029 3.17424,-4.37239 1.69608,-1.8821 5.50476,-6.13574 8.4637,-9.4526 2.95904,-3.31685 7.70867,-8.27308 10.55488,-11.01385 3.48858,-3.35904 4.82474,-5.25854 4.10035,-5.82806 -1.18249,-0.92941 -8.44206,3.8291 -20.21673,13.25128 -4.09047,3.27314 -9.30865,7.05024 -11.59571,8.39355 -4.83175,2.83788 -15.375085,12.0608 -15.536834,13.5911 -0.05466,0.57529 -2.406248,3.17483 -5.21237,5.77796 -5.026059,4.6625 -14.98512,8.99626 -22.03684,9.5896 -3.936828,0.33117 -4.982377,-2.8287 -1.997299,-6.03743 1.233336,-1.32555 2.758004,-2.36693 3.388691,-2.31404 0.630695,0.0525 4.202334,-1.84987 7.937629,-4.22795 3.735275,-2.37813 8.886004,-5.60313 11.445829,-7.16658 2.560123,-1.56342 6.826405,-4.62091 9.480342,-6.79451 2.654134,-2.17357 7.406392,-5.542 10.560452,-7.48544 3.15385,-1.94338 8.65819,-5.76081 12.23155,-8.48316 3.57333,-2.72235 11.27954,-8.28244 17.12546,-12.35576 9.80727,-8.50742 21.53618,-13.92696 30.99721,-21.50872 17.36427,-8.94308 36.07446,-35.49426 55.64964,-36.14676 5.50038,-0.14964 5.54061,-0.13059 4.66235,2.16592 -1.01275,2.64806 -7.34681,7.73634 -14.92029,11.98544 -2.8513,1.59985 -7.34159,4.65752 -9.9781,6.79491 -2.63647,2.13736 -6.66848,5.05394 -8.95974,6.48132 -2.29114,1.42739 -7.02367,4.77556 -10.51633,7.44045 -20.54621,15.67686 -26.76621,20.52821 -29.97133,23.37756 -1.96652,1.7482 -5.53251,4.886 -7.92438,6.97294 -2.39198,2.08693 -5.91447,5.68835 -7.82765,8.00317 -1.91318,2.31486 -5.66881,6.61387 -8.34587,9.55333 -2.67744,2.93958 -6.68399,7.90778 -8.90384,11.04057 -2.21987,3.13271 -6.03873,7.9968 -8.48681,10.80905 -2.44796,2.81224 -5.96974,7.23545 -7.82608,9.82939 -1.856557,2.59387 -3.986187,5.56483 -4.732932,6.60199 -4.777143,6.6363 -14.026764,20.8086 -14.744832,22.5918 -0.471573,1.17153 -1.486127,2.74926 -2.25428,3.50606 -2.045721,2.01547 -10.933092,17.15562 -11.100292,18.90987 -0.07877,0.82475 -1.451795,3.68858 -3.051356,6.36392 -3.495191,5.84589 -6.724387,21.59488 -7.107068,24.16574 -0.532817,2.15979 -0.99193,5.43442 -0.07504,9.2031 1.05809,2.31607 0.871795,2.91028 1.96019,4.96404 1.088397,2.0538 2.43196,3.45741 2.698719,3.48895 0.266984,0.029 1.581808,1.24043 2.922064,2.68653 3.808701,4.10962 15.750986,5.87355 25.824227,3.81421 8.217509,-1.6798 19.67446,-5.10225 31.89875,-9.5288 20.76667,-7.02218 40.55724,-11.61226 60.11224,-20.73558 5.07009,-2.41052 7.60237,-1.84107 6.80555,1.5304 -0.33001,1.39084 -1.86591,2.74784 -4.09365,3.61343 -32.62065,12.63538 -66.02137,24.61099 -96.575789,31.56945 -8.504853,1.92188 -19.368111,0.59146 -25.37827,-3.10814 z m 140.620392,-7.52876 c -3.33693,-4.18924 -3.95658,-7.74574 -3.05912,-17.5611 0.47156,-5.23801 1.23218,-9.94086 1.67403,-10.45246 0.44161,-0.51169 1.89225,-3.77897 3.22316,-7.26077 1.33113,-3.48167 2.78951,-6.75177 3.24143,-7.26679 0.45174,-0.51501 1.61229,-2.71553 2.57907,-4.88995 2.11606,-4.75923 7.36186,-10.787 9.22335,-10.59845 0.73845,0.0747 1.425,-0.7284 1.52572,-1.78483 0.36696,-3.84995 4.74753,-10.30331 8.86289,-13.05651 3.74074,-2.50253 4.56627,-2.67846 7.31115,-1.55748 5.65547,2.30982 10.06778,6.87621 11.68517,12.09389 1.64222,5.2958 1.38774,15.7287 -0.51503,21.13864 -1.03871,2.95288 -0.9464,3.19186 1.32017,3.42143 1.47996,0.14991 3.33421,-0.71793 4.72242,-2.21017 l 2.2857,-2.45694 2.19016,2.58082 c 2.38955,2.81601 2.5426,5.27025 0.52238,8.38457 -2.43241,3.75031 -3.33386,4.01689 -9.97826,2.9511 -6.26644,-1.00525 -6.51988,-0.95602 -7.34844,1.42952 -0.47197,1.35884 -2.01176,3.64072 -3.4219,5.07086 -1.40995,1.43013 -3.43728,4.00024 -4.5053,5.71139 -2.72347,4.36274 -17.43679,16.58943 -21.5172,17.88058 -4.68325,1.48187 -8.00682,0.96202 -10.02155,-1.56735 z M 230.974,336.80216 c 4.73103,-4.79818 9.74123,-11.82868 9.21631,-12.93263 -0.2462,-0.51796 -1.75773,-1.35258 -3.35897,-1.85475 -3.32495,-1.0427 -8.59016,-7.54132 -10.17666,-12.56036 -0.59037,-1.86808 -1.41642,-3.43124 -1.83527,-3.47365 -1.44515,-0.1463 -8.37977,6.75016 -10.88162,10.82204 -3.62562,5.90111 -5.3841,11.22455 -6.71941,20.3446 -3.9317,21.69617 15.11114,8.60558 23.75562,-0.34525 z m 12.60995,-19.64462 c 0.3193,-0.42962 1.18343,-4.78057 1.92369,-9.66845 1.26642,-8.36272 1.21767,-9.124 -0.82154,-12.90016 -1.95929,-3.62786 -2.58587,-4.05553 -6.52828,-4.45481 -6.49754,-0.69697 -5.15129,14.71184 -2.58068,20.18417 2.76817,5.51671 6.57781,8.77087 8.00681,6.83928 z m 35.85787,34.75795 c -1.12799,-0.57662 -2.67451,-2.27679 -3.43679,-3.77817 -1.16256,-2.29018 -1.15039,-3.18387 0.0758,-5.54962 2.49948,-5.61691 2.35466,-4.97225 4.87469,-8.9121 4.44147,-6.09471 5.67878,-4.81951 1.37743,-9.81096 -7.80414,-9.02248 -9.76836,-18.46142 -5.89674,-28.33629 1.80772,-4.61074 10.65634,-12.71822 16.42778,-15.05168 7.27062,-2.93965 16.63343,0.0562 16.14633,5.166 -0.26636,2.79591 -1.8923,4.04327 -2.46646,1.89219 -0.50385,-1.88794 -10.71871,-2.13317 -14.18158,-0.34025 -3.94681,2.04329 -8.73926,9.26034 -10.01567,15.08265 -0.9963,6.45198 2.20701,17.98848 8.05838,19.22064 2.97886,0.1873 2.8547,-4.16565 4.43152,-6.28834 1.58862,-2.10531 2.90757,-4.02932 2.93099,-4.27525 0.0251,-0.24582 2.66937,-3.6805 5.87991,-7.63209 6.89932,-8.49204 9.76866,-12.37399 13.88591,-18.78584 1.67743,-2.612 3.8938,-5.57413 4.92546,-6.58248 3.18621,-3.11407 22.6118,-30.74158 26.22836,-37.30251 1.45146,-2.63328 3.66923,-6.22359 6.32187,-10.23462 0.94851,-1.43407 3.52924,-5.72329 5.73501,-9.53169 2.93894,-8.31112 4.22852,-15.29686 5.3758,-24.37606 0.75355,-6.11064 2.05516,-13.0895 2.89235,-15.50847 0.83713,-2.41889 2.03635,-5.93925 2.66481,-7.82298 5.41267,-16.22248 8.49564,-22.23386 11.89073,-23.18506 8.77922,-1.53574 4.02894,17.38323 2.71842,21.62977 -1.27944,4.04335 -2.40975,8.22365 -2.51171,9.28947 -0.10185,1.06593 -1.16445,3.68965 -2.36101,5.83065 -2.81072,5.02932 -7.30632,16.40826 -8.47985,21.46321 -1.68144,9.98403 -4.58242,19.49125 -6.5052,28.17236 -0.66742,2.99252 -2.26257,13.75647 -3.54463,23.91987 -2.45544,19.46494 -3.16864,24.26448 -5.22059,35.13077 -0.69599,3.6852 -1.04669,6.72243 -0.77938,6.74952 15.27825,-15.8017 41.58463,-12.34013 56.63615,-27.79319 1.26756,-1.52335 2.19445,-1.71419 4.52866,-0.93244 2.60678,0.87298 2.83678,1.27507 2.05673,3.5957 -1.06906,3.18086 -4.31146,8.29461 -7.63674,12.0446 -1.35816,1.53155 -3.80319,4.27844 -5.43351,6.10414 -3.04098,3.40558 -23.9599,37.18713 -24.12951,38.96625 -0.0515,0.54417 0.54802,1.05448 1.33319,1.13398 2.85255,0.39974 1.30024,-0.621 6.51053,-5.39106 2.69257,-2.43834 6.02348,-6.15802 7.40196,-8.26601 3.80704,-5.82146 14.80692,-19.07503 17.80974,-21.4588 1.92599,-1.52884 3.30642,-1.87632 4.98815,-1.25562 4.11821,3.69973 7.32497,11.82589 6.85982,17.17773 0.12143,17.08693 9.50334,36.62064 20.6762,37.91114 3.07039,0.34998 6.38594,1.05882 7.36786,1.57505 1.57017,0.82538 1.31086,1.17825 -2.15073,2.92673 -11.09752,4.0544 -19.21416,-3.17836 -23.65848,-9.47545 -6.00686,-5.18921 -4.27354,-6.58938 -5.70337,-10.44095 -1.50146,-3.95385 -2.88015,-12.62746 -3.53122,-22.21573 -0.82992,-12.22322 -1.43246,-12.56733 -7.90191,-4.5125 -11.34784,10.22965 -18.7704,28.1621 -33.16979,33.84033 -2.42204,0.7587 -2.73479,0.5457 -3.84523,-2.61934 -0.95138,-2.71143 -0.91742,-4.35473 0.1594,-7.7156 2.34851,-7.33096 22.2089,-40.15767 28.53286,-47.16133 3.8733,-4.28967 1.7818,-5.13467 -4.15463,-1.67854 -20.02966,9.07324 -26.20949,12.74612 -39.30567,22.29968 -6.23619,4.55995 -6.58532,5.03609 -8.86754,12.09344 -2.91754,9.02178 -5.76387,18.06143 -7.01882,22.2918 -2.02925,4.22711 -5.90632,13.28999 -10.61958,13.35168 -6.61212,-6.2837 -3.14115,-29.37203 0.88934,-36.40912 2.09727,-3.60749 4.78147,-6.44249 8.3026,-8.76949 3.55369,-2.34856 5.46338,-4.37441 6.0239,-6.3904 2.02252,-7.27442 5.1811,-26.40393 7.39316,-44.77403 1.32384,-10.99379 2.80156,-21.79502 3.28395,-24.00273 0.63783,-2.91846 0.49062,-4.41671 -0.53907,-5.48945 -1.22766,-1.27865 -1.4477,-1.14969 -1.64947,0.96652 -0.23693,2.47979 -11.0657,19.93344 -19.48864,31.40971 -2.54374,3.46595 -5.95861,8.35522 -7.58842,10.86502 -13.05318,15.25233 -21.12353,31.97919 -30.72647,47.99282 -1.19383,1.94334 -2.28505,4.73384 -2.42495,6.20093 2.58202,3.11592 1.93644,3.58307 0.76564,7.83731 -0.62638,2.37839 -2.84075,5.5839 -6.20497,8.98193 -6.24555,6.30839 -10.2894,8.4342 -13.20702,6.94288 z m 7.61254,-13.51478 c 0.22257,-2.33439 -2.1278,-1.15451 -2.75475,1.38289 -0.48342,1.95686 -0.33039,2.13501 1.02337,1.19093 0.87541,-0.61054 1.65462,-1.76875 1.73138,-2.57382 z m 58.1497,-12.50131 c 1.5025,-1.70183 1.92595,-6.52321 0.58163,-6.62389 -4.94978,-0.37074 -10.41332,17.34205 -7.08576,22.97239 1.46032,2.47092 1.50461,2.39055 3.52525,-6.3949 1.12546,-4.89354 2.46604,-9.37268 2.97888,-9.9536 z M 378.2034,169.15226 c -1.8855,4.59115 -3.87055,13.82647 -4.48466,19.13189 -0.35918,3.77022 5.07485,-8.8152 7.64085,-13.75259 3.17821,-6.11517 2.21916,-10.43061 -0.13647,-10.20576 -1.19175,0.11308 -2.12646,1.60772 -3.01972,4.82646 z"
       id="path5119-3-2"
       inkscape:connector-curvature="0"
       inkscape:export-xdpi="96"
       inkscape:export-ydpi="96"
       sodipodi:nodetypes="cccccccccccccccccccscccccccsccccccccccccccccccccccscccccccccccccccccccccccccccccccccccccccccccccccccccccsccccccccccsccccsccccccccccccccccccccccccccccccccccccccccccccccccccccccccccccccccccc"
       inkscape:export-filename="C:\Users\Costa\Desktop\Desktop\Business\PR Business card\signature.png" />
  </g>
</svg>
